<svg xmlns="http://www.w3.org/2000/svg" xmlns:xlink="http://www.w3.org/1999/xlink" width="500" zoomAndPan="magnify" viewBox="0 0 375 374.999991" height="500" preserveAspectRatio="xMidYMid meet" version="1.0"><defs><g/><clipPath id="2b7d2e630d"><path d="M 59 163.730469 L 76 163.730469 L 76 176 L 59 176 Z M 59 163.730469 " clip-rule="nonzero"/></clipPath><clipPath id="3af859d9ec"><path d="M 50.378906 181 L 66 181 L 66 197 L 50.378906 197 Z M 50.378906 181 " clip-rule="nonzero"/></clipPath><clipPath id="d78ff66fd1"><path d="M 63 180 L 84.878906 180 L 84.878906 201.230469 L 63 201.230469 Z M 63 180 " clip-rule="nonzero"/></clipPath></defs><g clip-path="url(#2b7d2e630d)"><path fill="#1a1a1a" d="M 59.765625 173.738281 C 59.628906 173.671875 59.496094 173.601562 59.371094 173.53125 C 59.742188 171.765625 60.195312 169.574219 60.582031 167.660156 C 60.625 167.449219 60.671875 167.246094 60.722656 167.054688 C 61.039062 165.792969 61.480469 164.945312 61.957031 164.445312 C 62.546875 163.828125 63.191406 163.742188 63.734375 164.078125 C 63.960938 164.21875 64.167969 164.429688 64.347656 164.710938 C 64.472656 164.910156 64.628906 165.089844 64.800781 165.253906 C 65.117188 165.554688 65.472656 165.789062 65.855469 165.957031 C 66.800781 166.367188 67.886719 166.359375 68.828125 165.933594 C 69.191406 165.769531 69.53125 165.542969 69.832031 165.253906 C 70.003906 165.089844 70.160156 164.910156 70.285156 164.710938 C 70.484375 164.398438 70.722656 164.167969 70.980469 164.03125 C 71.464844 163.773438 72.023438 163.847656 72.550781 164.324219 C 73.054688 164.785156 73.527344 165.617188 73.871094 166.894531 C 73.9375 167.132812 73.996094 167.390625 74.050781 167.660156 C 74.449219 169.640625 74.921875 171.914062 75.300781 173.710938 C 75.28125 173.71875 75.265625 173.730469 75.246094 173.738281 C 73.195312 174.757812 70.449219 175.316406 67.507812 175.316406 C 64.566406 175.316406 61.816406 174.757812 59.765625 173.738281 Z M 59.765625 173.738281 " fill-opacity="1" fill-rule="nonzero"/></g><path fill="#1a1a1a" d="M 81.035156 178.648438 C 81.035156 180.8125 74.894531 182.566406 67.316406 182.566406 C 59.742188 182.566406 53.597656 180.8125 53.597656 178.648438 C 53.597656 177.414062 55.609375 176.308594 58.75 175.589844 C 58.777344 175.605469 58.808594 175.621094 58.835938 175.632812 C 61.171875 176.792969 64.25 177.433594 67.507812 177.433594 C 70.746094 177.433594 73.8125 176.800781 76.140625 175.652344 C 79.132812 176.371094 81.035156 177.445312 81.035156 178.648438 Z M 81.035156 178.648438 " fill-opacity="1" fill-rule="nonzero"/><g clip-path="url(#3af859d9ec)"><path fill="#1a1a1a" d="M 65.933594 194.339844 C 65.78125 194.566406 65.632812 194.796875 65.492188 195.027344 C 65.175781 195.539062 64.894531 196.03125 64.644531 196.5 L 54.394531 191.28125 L 57.90625 189.808594 L 50.378906 185.527344 L 54.3125 181.230469 C 55.074219 181.695312 56.085938 182.113281 57.320312 182.464844 C 57.332031 182.46875 57.34375 182.472656 57.355469 182.472656 C 58.265625 187.367188 62.519531 191.625 65.933594 194.339844 Z M 65.933594 194.339844 " fill-opacity="1" fill-rule="nonzero"/></g><g clip-path="url(#d78ff66fd1)"><path fill="#1a1a1a" d="M 77.3125 190.292969 L 81.285156 191.113281 C 81.285156 191.113281 70.453125 192.503906 63.929688 201.21875 C 63.929688 201.21875 65.996094 191.59375 76.824219 186.351562 C 77.148438 186.195312 77.355469 185.863281 77.355469 185.5 L 77.355469 182.453125 C 78.703125 182.066406 79.78125 181.601562 80.558594 181.078125 C 80.703125 180.980469 80.832031 180.882812 80.953125 180.785156 L 84.882812 185.527344 Z M 77.3125 190.292969 " fill-opacity="1" fill-rule="nonzero"/></g><path fill="#1a1a1a" d="M 66.378906 184.328125 C 66.253906 185.453125 64.53125 186.1875 62.527344 185.960938 C 60.523438 185.738281 59 184.644531 59.125 183.519531 C 59.148438 183.316406 59.222656 183.128906 59.339844 182.957031 C 61.390625 183.359375 63.765625 183.597656 66.257812 183.652344 C 66.359375 183.871094 66.402344 184.097656 66.378906 184.328125 Z M 66.378906 184.328125 " fill-opacity="1" fill-rule="nonzero"/><path fill="#1a1a1a" d="M 72.734375 185.960938 C 70.730469 186.1875 69.003906 185.453125 68.882812 184.328125 C 68.855469 184.09375 68.902344 183.859375 69.011719 183.632812 C 71.496094 183.546875 73.835938 183.277344 75.835938 182.84375 C 76.003906 183.046875 76.109375 183.273438 76.132812 183.519531 C 76.257812 184.644531 74.734375 185.738281 72.734375 185.960938 Z M 72.734375 185.960938 " fill-opacity="1" fill-rule="nonzero"/><g fill="#000000" fill-opacity="1"><g transform="translate(92.542872, 191.416423)"><g><path d="M 13.34375 0 L 13.34375 -3.777344 L 6.175781 -3.777344 L 6.175781 -21.339844 L 1.886719 -21.339844 L 1.886719 0 Z M 13.34375 0 "/></g></g></g><g fill="#000000" fill-opacity="1"><g transform="translate(106.555406, 191.416423)"><g><path d="M 13.597656 0 L 13.597656 -10.367188 C 13.597656 -14.332031 10.941406 -15.835938 7.582031 -15.835938 C 5.597656 -15.835938 3.261719 -15.164062 1.632812 -13.597656 L 3.070312 -10.972656 C 4.222656 -12.09375 5.535156 -12.636719 6.878906 -12.636719 C 8.703125 -12.636719 9.726562 -11.613281 9.726562 -9.949219 L 9.726562 -7.902344 C 8.894531 -9.117188 7.261719 -9.726562 5.664062 -9.726562 C 3.230469 -9.726562 0.894531 -8.125 0.894531 -4.734375 C 0.894531 -1.441406 3.230469 0.382812 5.664062 0.382812 C 7.230469 0.382812 8.863281 -0.320312 9.726562 -1.535156 L 9.726562 0 Z M 9.726562 -3.679688 C 9.214844 -2.71875 8.191406 -2.207031 7.136719 -2.207031 C 5.695312 -2.207031 4.734375 -3.199219 4.734375 -4.671875 C 4.734375 -6.144531 5.695312 -7.167969 7.136719 -7.167969 C 8.191406 -7.167969 9.214844 -6.589844 9.726562 -5.664062 Z M 9.726562 -3.679688 "/></g></g></g><g fill="#000000" fill-opacity="1"><g transform="translate(121.879639, 191.416423)"><g><path d="M 5.566406 0 L 5.566406 -1.953125 C 6.527344 -0.414062 8 0.382812 9.46875 0.382812 C 12.925781 0.382812 15.199219 -2.65625 15.199219 -7.710938 C 15.199219 -12.671875 12.957031 -15.835938 9.46875 -15.835938 C 8 -15.835938 6.496094 -15.101562 5.566406 -13.5 L 5.566406 -21.339844 L 1.726562 -21.339844 L 1.726562 0 Z M 5.566406 -10.589844 C 6.078125 -11.613281 7.199219 -12.445312 8.253906 -12.445312 C 10.207031 -12.445312 11.230469 -10.429688 11.230469 -7.710938 C 11.230469 -5.023438 10.207031 -3.007812 8.253906 -3.007812 C 7.199219 -3.007812 6.078125 -3.808594 5.566406 -4.832031 Z M 5.566406 -10.589844 "/></g></g></g><g fill="#000000" fill-opacity="1"><g transform="translate(138.003676, 191.416423)"><g><path d="M 7.902344 0.382812 C 12.511719 0.382812 14.910156 -3.390625 14.910156 -7.742188 C 14.910156 -12.0625 12.511719 -15.835938 7.902344 -15.835938 C 3.359375 -15.835938 0.929688 -12.0625 0.929688 -7.742188 C 0.929688 -3.390625 3.359375 0.382812 7.902344 0.382812 Z M 7.902344 -3.007812 C 5.855469 -3.007812 4.925781 -5.183594 4.925781 -7.742188 C 4.925781 -10.269531 5.855469 -12.445312 7.902344 -12.445312 C 10.015625 -12.445312 10.941406 -10.269531 10.941406 -7.742188 C 10.941406 -5.183594 10.015625 -3.007812 7.902344 -3.007812 Z M 7.902344 -3.007812 "/></g></g></g><g fill="#000000" fill-opacity="1"><g transform="translate(153.839781, 191.416423)"><g><path d="M 5.566406 0 L 5.566406 -10.300781 C 6.207031 -11.328125 7.648438 -12.15625 8.863281 -12.15625 C 9.214844 -12.15625 9.535156 -12.125 9.789062 -12.0625 L 9.789062 -15.804688 C 8.125 -15.804688 6.429688 -14.71875 5.566406 -13.308594 L 5.566406 -15.453125 L 1.726562 -15.453125 L 1.726562 0 Z M 5.566406 0 "/></g></g></g><g fill="#000000" fill-opacity="1"><g transform="translate(164.077264, 191.416423)"><g><path d="M 13.597656 0 L 13.597656 -10.367188 C 13.597656 -14.332031 10.941406 -15.835938 7.582031 -15.835938 C 5.597656 -15.835938 3.261719 -15.164062 1.632812 -13.597656 L 3.070312 -10.972656 C 4.222656 -12.09375 5.535156 -12.636719 6.878906 -12.636719 C 8.703125 -12.636719 9.726562 -11.613281 9.726562 -9.949219 L 9.726562 -7.902344 C 8.894531 -9.117188 7.261719 -9.726562 5.664062 -9.726562 C 3.230469 -9.726562 0.894531 -8.125 0.894531 -4.734375 C 0.894531 -1.441406 3.230469 0.382812 5.664062 0.382812 C 7.230469 0.382812 8.863281 -0.320312 9.726562 -1.535156 L 9.726562 0 Z M 9.726562 -3.679688 C 9.214844 -2.71875 8.191406 -2.207031 7.136719 -2.207031 C 5.695312 -2.207031 4.734375 -3.199219 4.734375 -4.671875 C 4.734375 -6.144531 5.695312 -7.167969 7.136719 -7.167969 C 8.191406 -7.167969 9.214844 -6.589844 9.726562 -5.664062 Z M 9.726562 -3.679688 "/></g></g></g><g fill="#000000" fill-opacity="1"><g transform="translate(179.401497, 191.416423)"><g><path d="M 6.335938 0.382812 C 7.742188 0.382812 8.734375 0 9.308594 -0.511719 L 8.511719 -3.457031 C 8.320312 -3.199219 7.839844 -3.007812 7.359375 -3.007812 C 6.621094 -3.007812 6.238281 -3.617188 6.238281 -4.605469 L 6.238281 -12.09375 L 8.796875 -12.09375 L 8.796875 -15.453125 L 6.238281 -15.453125 L 6.238281 -19.675781 L 2.398438 -19.675781 L 2.398438 -15.453125 L 0.382812 -15.453125 L 0.382812 -12.09375 L 2.398438 -12.09375 L 2.398438 -3.710938 C 2.398438 -0.992188 3.648438 0.382812 6.335938 0.382812 Z M 6.335938 0.382812 "/></g></g></g><g fill="#000000" fill-opacity="1"><g transform="translate(188.935157, 191.416423)"><g><path d="M 7.902344 0.382812 C 12.511719 0.382812 14.910156 -3.390625 14.910156 -7.742188 C 14.910156 -12.0625 12.511719 -15.835938 7.902344 -15.835938 C 3.359375 -15.835938 0.929688 -12.0625 0.929688 -7.742188 C 0.929688 -3.390625 3.359375 0.382812 7.902344 0.382812 Z M 7.902344 -3.007812 C 5.855469 -3.007812 4.925781 -5.183594 4.925781 -7.742188 C 4.925781 -10.269531 5.855469 -12.445312 7.902344 -12.445312 C 10.015625 -12.445312 10.941406 -10.269531 10.941406 -7.742188 C 10.941406 -5.183594 10.015625 -3.007812 7.902344 -3.007812 Z M 7.902344 -3.007812 "/></g></g></g><g fill="#000000" fill-opacity="1"><g transform="translate(204.771261, 191.416423)"><g><path d="M 5.566406 0 L 5.566406 -10.300781 C 6.207031 -11.328125 7.648438 -12.15625 8.863281 -12.15625 C 9.214844 -12.15625 9.535156 -12.125 9.789062 -12.0625 L 9.789062 -15.804688 C 8.125 -15.804688 6.429688 -14.71875 5.566406 -13.308594 L 5.566406 -15.453125 L 1.726562 -15.453125 L 1.726562 0 Z M 5.566406 0 "/></g></g></g><g fill="#000000" fill-opacity="1"><g transform="translate(215.008745, 191.416423)"><g><path d="M 1.375 6.046875 C 1.792969 6.175781 2.75 6.269531 3.230469 6.269531 C 5.695312 6.238281 7.359375 5.472656 8.320312 2.625 L 14.367188 -15.453125 L 10.269531 -15.453125 L 7.136719 -4.640625 L 4.03125 -15.453125 L -0.0625 -15.453125 L 5.152344 0.289062 L 4.640625 1.757812 C 4.351562 2.558594 3.808594 2.878906 2.945312 2.878906 C 2.65625 2.878906 2.207031 2.785156 1.953125 2.65625 Z M 1.375 6.046875 "/></g></g></g><g fill="#000000" fill-opacity="1"><g transform="translate(229.277237, 191.416423)"><g/></g></g><g fill="#737373" fill-opacity="1"><g transform="translate(236.0038, 191.416423)"><g><path d="M 9.726562 0 L 9.726562 -17.566406 L 14.460938 -17.566406 L 14.460938 -21.339844 L 0.671875 -21.339844 L 0.671875 -17.566406 L 5.4375 -17.566406 L 5.4375 0 Z M 9.726562 0 "/></g></g></g><g fill="#737373" fill-opacity="1"><g transform="translate(249.600319, 191.416423)"><g><path d="M 5.566406 0 L 5.566406 -10.300781 C 6.207031 -11.328125 7.648438 -12.15625 8.863281 -12.15625 C 9.214844 -12.15625 9.535156 -12.125 9.789062 -12.0625 L 9.789062 -15.804688 C 8.125 -15.804688 6.429688 -14.71875 5.566406 -13.308594 L 5.566406 -15.453125 L 1.726562 -15.453125 L 1.726562 0 Z M 5.566406 0 "/></g></g></g><g fill="#737373" fill-opacity="1"><g transform="translate(259.837802, 191.416423)"><g><path d="M 13.597656 0 L 13.597656 -10.367188 C 13.597656 -14.332031 10.941406 -15.835938 7.582031 -15.835938 C 5.597656 -15.835938 3.261719 -15.164062 1.632812 -13.597656 L 3.070312 -10.972656 C 4.222656 -12.09375 5.535156 -12.636719 6.878906 -12.636719 C 8.703125 -12.636719 9.726562 -11.613281 9.726562 -9.949219 L 9.726562 -7.902344 C 8.894531 -9.117188 7.261719 -9.726562 5.664062 -9.726562 C 3.230469 -9.726562 0.894531 -8.125 0.894531 -4.734375 C 0.894531 -1.441406 3.230469 0.382812 5.664062 0.382812 C 7.230469 0.382812 8.863281 -0.320312 9.726562 -1.535156 L 9.726562 0 Z M 9.726562 -3.679688 C 9.214844 -2.71875 8.191406 -2.207031 7.136719 -2.207031 C 5.695312 -2.207031 4.734375 -3.199219 4.734375 -4.671875 C 4.734375 -6.144531 5.695312 -7.167969 7.136719 -7.167969 C 8.191406 -7.167969 9.214844 -6.589844 9.726562 -5.664062 Z M 9.726562 -3.679688 "/></g></g></g><g fill="#737373" fill-opacity="1"><g transform="translate(275.162035, 191.416423)"><g><path d="M 0.929688 -7.742188 C 0.929688 -3.007812 3.742188 0.382812 8 0.382812 C 10.429688 0.382812 12.03125 -0.609375 12.925781 -1.695312 L 11.007812 -4.351562 C 10.300781 -3.488281 9.46875 -3.007812 8.414062 -3.007812 C 6.207031 -3.007812 4.894531 -5.054688 4.894531 -7.742188 C 4.894531 -10.429688 6.207031 -12.445312 8.414062 -12.445312 C 9.46875 -12.445312 10.300781 -11.964844 11.007812 -11.101562 L 12.925781 -13.757812 C 12.03125 -14.84375 10.429688 -15.835938 8 -15.835938 C 3.742188 -15.835938 0.929688 -12.445312 0.929688 -7.742188 Z M 0.929688 -7.742188 "/></g></g></g><g fill="#737373" fill-opacity="1"><g transform="translate(288.630723, 191.416423)"><g><path d="M 14.910156 0 L 9.855469 -8.511719 L 14.75 -15.453125 L 10.269531 -15.453125 L 5.566406 -8.445312 L 5.566406 -21.339844 L 1.726562 -21.339844 L 1.726562 0 L 5.566406 0 L 5.566406 -3.777344 L 7.199219 -6.046875 L 10.398438 0 Z M 14.910156 0 "/></g></g></g><g fill="#737373" fill-opacity="1"><g transform="translate(303.123119, 191.416423)"><g><path d="M 0.929688 -7.742188 C 0.929688 -2.878906 3.777344 0.382812 8.125 0.382812 C 10.207031 0.382812 12.285156 -0.414062 13.660156 -1.917969 L 11.902344 -4.222656 C 11.039062 -3.261719 9.726562 -2.71875 8.542969 -2.71875 C 6.207031 -2.71875 4.960938 -4.382812 4.800781 -6.496094 L 14.492188 -6.496094 L 14.492188 -7.582031 C 14.492188 -12.382812 12.09375 -15.835938 7.839844 -15.835938 C 3.550781 -15.835938 0.929688 -12.222656 0.929688 -7.742188 Z M 7.773438 -12.734375 C 10.015625 -12.734375 10.71875 -10.71875 10.78125 -9.117188 L 4.800781 -9.117188 C 4.863281 -10.71875 5.632812 -12.734375 7.773438 -12.734375 Z M 7.773438 -12.734375 "/></g></g></g><g fill="#737373" fill-opacity="1"><g transform="translate(318.447352, 191.416423)"><g><path d="M 5.566406 0 L 5.566406 -10.300781 C 6.207031 -11.328125 7.648438 -12.15625 8.863281 -12.15625 C 9.214844 -12.15625 9.535156 -12.125 9.789062 -12.0625 L 9.789062 -15.804688 C 8.125 -15.804688 6.429688 -14.71875 5.566406 -13.308594 L 5.566406 -15.453125 L 1.726562 -15.453125 L 1.726562 0 Z M 5.566406 0 "/></g></g></g></svg>